<?xml version="1.0" encoding="UTF-8" standalone="no"?>
<svg
   width="228.59087"
   height="48"
   viewBox="0 0 228.59087 48"
   version="1.1"
   id="svg2"
   xmlns="http://www.w3.org/2000/svg"
   xmlns:svg="http://www.w3.org/2000/svg">
  <defs
     id="defs2" />
  <style
     id="style1">
    .b {fill: #0d1117}
    .l {fill: #fff}
    @media (prefers-color-scheme: light) {
      .b {fill: #fff}
      .l {fill: #0d1117}
    }
  </style>
  <g
     id="g2"
     transform="translate(-391.70457,-126)">
    <path
       fill="#d80303"
       d="M 410.59,171.78 V 157.6 q 0,-6.47 3.02,-10.31 3.02,-3.84 8.12,-3.84 v 0 q 1.29,0 2.69,0.24 1.41,0.23 2.49,0.64 v 0 -4.19 q -0.73,-0.32 -1.97,-0.51 -1.25,-0.19 -2.63,-0.19 v 0 q -4.6,0 -7.58,2.3 -2.99,2.3 -3.81,6.52 v 0 h -0.41 v -8.03 h -10.9 v 3.1 h 7.15 v 28.45 z m -10.34,0 h 20.36 v -3.1 H 400.25 Z M 449.5,143.1 v 0 q 4.19,0 6.55,2.86 2.36,2.85 2.36,7.89 v 0 h -18.05 q 0,-5.07 2.43,-7.91 2.43,-2.84 6.71,-2.84 z m 12.66,20.89 h -3.81 q -0.73,2.31 -2.96,3.6 -2.23,1.29 -5.45,1.29 v 0 q -4.39,0 -6.99,-2.91 -2.59,-2.92 -2.59,-7.87 v 0 -1.08 h 21.94 v -2.49 q 0,-4.72 -1.51,-8.03 -1.5,-3.31 -4.36,-5.05 -2.86,-1.75 -6.93,-1.75 v 0 q -3.9,0 -6.83,1.72 -2.92,1.71 -4.54,4.8 -1.61,3.09 -1.61,7.25 v 0 4.6 q 0,6.74 3.53,10.49 3.53,3.75 9.89,3.75 v 0 q 3.19,0 5.76,-1.03 2.56,-1.02 4.25,-2.9 1.68,-1.87 2.21,-4.39 z"
       id="path1" />
    <path
       class="l"
       d="m 501.21,171.78 v -22.64 q 0,-4.69 -1.74,-7.06 -1.75,-2.38 -5.2,-2.38 v 0 q -2.44,0 -4.28,1.29 -1.85,1.29 -2.49,3.46 v 0 h -0.41 q -0.5,-2.26 -2.04,-3.5 -1.54,-1.25 -3.79,-1.25 v 0 q -2.17,0 -3.8,1.28 -1.62,1.27 -2.24,3.47 v 0 h -0.41 v -4.22 h -3.48 v 31.55 h 3.6 v -21.12 q 0,-3.49 1.36,-5.49 1.37,-2.01 3.74,-2.01 v 0 q 2.25,0 3.38,1.71 1.13,1.72 1.13,5.12 v 0 21.79 h 3.6 v -21.12 q 0,-3.52 1.34,-5.51 1.33,-1.99 3.64,-1.99 v 0 q 2.23,0 3.36,1.73 1.13,1.73 1.13,5.12 v 0 21.77 z m 19.37,0.56 v 0 q 3.57,0 6.1,-1.42 2.54,-1.42 3.65,-4.09 v 0 h 0.41 v 4.98 h 3.69 v -21.68 q 0,-4.8 -2.97,-7.48 -2.97,-2.68 -8.34,-2.68 v 0 q -3.04,0 -5.52,1.04 -2.47,1.04 -4.04,2.85 -1.57,1.82 -1.86,4.19 v 0 h 3.81 q 0.67,-2.28 2.65,-3.51 1.98,-1.23 4.96,-1.23 v 0 q 3.64,0 5.54,1.8 1.91,1.8 1.91,5.2 v 0 2.99 l -9.15,0.41 q -5.21,0.23 -8.07,2.62 -2.85,2.39 -2.85,6.55 v 0 q 0,4.27 2.77,6.87 2.76,2.59 7.31,2.59 z m 0.93,-3.4 v 0 q -3.28,0 -5.17,-1.63 -1.89,-1.62 -1.89,-4.43 v 0 q 0,-5.69 7.24,-6.01 v 0 l 8.88,-0.38 v 4.39 q 0,2.26 -1.21,4.09 -1.2,1.83 -3.25,2.9 -2.05,1.07 -4.6,1.07 z m 37.44,2.84 V 157.6 q 0,-6.47 3.02,-10.31 3.02,-3.84 8.12,-3.84 v 0 q 1.29,0 2.69,0.24 1.41,0.23 2.49,0.64 v 0 -4.19 q -0.73,-0.32 -1.98,-0.51 -1.24,-0.19 -2.62,-0.19 v 0 q -4.6,0 -7.59,2.3 -2.98,2.3 -3.8,6.52 v 0 h -0.41 v -8.03 h -10.9 v 3.1 h 7.15 v 28.45 z m -10.34,0 h 20.36 v -3.1 h -20.36 z m 58.04,-31.55 -14.82,14.85 h -0.36 v -27.42 h -3.83 v 44.12 h 3.83 v -11.95 l 5.6,-5.45 0.94,-0.91 13.5,-13.24 z m -8.12,11.48 -2.78,2.49 12.01,17.58 h 4.63 z"
       id="path2" />
  </g>
</svg>
