<?xml version="1.0" encoding="UTF-8"?><svg id="a" xmlns="http://www.w3.org/2000/svg" viewBox="0 0 1502.7 183.5"><path d="m23.8,175.4c-4.6,0-8.4,1.8-11.4,6.3L0,108.7l1-.5c16.5,25.1,42.1,40.5,64.4,40.5,16.2,0,26.9-6.6,26.9-17.7,0-11.4-15-17-38.8-25.1C30.9,97.8,3,85.4,3,52.7,3,23.3,29.9.5,67.4.5c20.8,0,30.7,5.8,37.8,5.8,4.1,0,6.8-1.3,9.6-4.8l8.1,64.6-1,.5c-12.2-20.5-32.7-32.4-54-32.4-16.7,0-27.9,7.6-27.9,17.8,0,11.4,14.7,16.2,30.2,22.3,26.6,9.1,59.8,21.8,59.6,56.3,0,30.4-26.6,52.5-62.1,52.5-21.8-.1-36-7.7-43.9-7.7" fill="#fff"/><path d="m278.2,91.7c0-33.5-16.5-56.5-40.5-56.5-23.8,0-40.3,23.1-40.3,56.5s16.5,56.5,40.3,56.5c24.1.1,40.5-23,40.5-56.5m-118.6,0C159.6,37.2,191.8,0,237.7,0s78.1,37.3,78.1,91.7c0,54.5-32.2,91.7-78.1,91.7-45.9.1-78.1-37.2-78.1-91.7" fill="#fff"/><path d="m358.3,115.8V24.3c0-11.7-5.1-17.5-12.7-20.8v-.5h62.1v.5c-7.6,3.3-12.7,9.1-12.7,20.8v89.7c0,21.8,13.7,33.4,29.9,33.4,16,0,29.9-11.7,29.9-33.4V24.3c0-11.7-5.1-17.5-12.7-20.8v-.5h62.1v.5c-7.6,3.3-12.7,9.1-12.7,20.8v91.5c0,41.1-29.6,67.7-66.7,67.7s-66.4999-26.6-66.4999-67.7" fill="#fff"/><path d="m669.5,48.7l-.5.3c-11.7-10.6-22.8-12.7-38.5-12.7h-14.5l.3,122.9c0,11.7,5.1,17.5,12.7,20.8v.5h-62.1v-.5c7.6-3.3,12.7-9.1,12.7-20.8V36.2h-14.4c-15.7,0-27.1,2-38.5,12.7l-.5-.3,12.3-45.6h118.3l12.7,45.7Z" fill="#fff"/><path d="m854,179.9v.5h-62.1v-.5c7.6-3.3,12.7-9.1,12.7-20.8v-50.7l-29.7,15.5-29.4-15.5v50.7c0,11.7,5.1,17.5,12.7,20.8v.5h-62.1v-.5c7.6-3.3,12.7-9.1,12.7-20.8V24.3c0-11.7-5.1-17.5-12.7-20.8v-.5h62.1v.5c-7.6,3.3-12.7,9.1-12.7,20.8v46.7l29.4,15.7,29.4-15.7V24.3c0-11.7-5.1-17.5-12.7-20.8v-.5h62.1v.5c-7.6,3.3-12.7,9.1-12.7,20.8l.3,134.8c0,11.7,5.1001,17.5,12.7001,20.8" fill="#fff"/><path d="m1013.4,134.6l-12.7,45.9h-116.1v-.5c7.6-3.3,12.7-9.1,12.7-20.8V24.3c0-11.7-5.1-17.5-12.7-20.8v-.5h62.1v.5c-7.6,3.3-12.7,9.1-12.7,20.8v122.9h40.3c15.2,0,27.1-1.8,38.5-12.9l.6001.3Z" fill="#fff"/><path d="m1177.1,134.8l-12.2,45.6h-124.9v-.5c7.6-3.3,12.7-9.1,12.7-20.8V24.3c0-11.7-5.1-17.5-12.7-20.8v-.5h122.1l11.4,45.9-.5.5c-11.4-10.9-22.6-13.2-38.3-13.2h-45.4v37.5h36.2c12.2,0,18-5.3,21.5-13.2h.5v59.3h-.5c-3.5-7.9-9.4-13.2-21.5-13.2h-36.2v40.5h48.2c15.7,0,27.1-2.3,38.5-12.9l1.1001.6Z" fill="#fff"/><path d="m1256.6,75.3h36.2c12.2,0,18-5.3,21.5-13.2h.5v59.3h-.5c-3.5-7.9-9.4-13.2-21.5-13.2h-36.2v50.9c0,11.7,5.1,17.5,12.7,20.8v.5h-62.1v-.5c7.6-3.3,12.7-9.1,12.7-20.8V24.3c0-11.7-5.1-17.5-12.7-20.8v-.5h120.9l11.7,45.9-.8.5c-11.1-10.9-22.3-13.2-38.3-13.2h-44.1v39.1h.0001Z" fill="#fff"/><path d="m1502.7,48.7l-.5.3c-11.7-10.6-22.8-12.7-38.5-12.7h-14.4l.3,122.9c0,11.7,5.1,17.5,12.7,20.8v.5h-62.1v-.5c7.6-3.3,12.7-9.1,12.7-20.8V36.2h-14.4c-15.7,0-27.1,2-38.5,12.7l-.5-.3,12.2001-45.6h118.3l12.7,45.7Z" fill="#fff"/></svg>