<?xml version="1.0" encoding="UTF-8" standalone="no"?>
<svg
   height="30"
   fill="none"
   viewBox="0 0 100 25"
   version="1.1"
   id="svg3"
   sodipodi:docname="logosb.svg"
   xml:space="preserve"
   inkscape:version="1.4 (e7c3feb100, 2024-10-09)"
   width="100"
   xmlns:inkscape="http://www.inkscape.org/namespaces/inkscape"
   xmlns:sodipodi="http://sodipodi.sourceforge.net/DTD/sodipodi-0.dtd"
   xmlns="http://www.w3.org/2000/svg"
   xmlns:svg="http://www.w3.org/2000/svg"><defs
     id="defs3" /><sodipodi:namedview
     id="namedview3"
     pagecolor="#ffffff"
     bordercolor="#666666"
     borderopacity="1.0"
     inkscape:showpageshadow="2"
     inkscape:pageopacity="0.0"
     inkscape:pagecheckerboard="0"
     inkscape:deskcolor="#d1d1d1"
     inkscape:zoom="3.1271798"
     inkscape:cx="35.495241"
     inkscape:cy="18.387175"
     inkscape:window-width="1920"
     inkscape:window-height="1054"
     inkscape:window-x="0"
     inkscape:window-y="26"
     inkscape:window-maximized="1"
     inkscape:current-layer="svg3" /><path
     d="m 26.64,15.831 a 8.784,8.784 0 0 1 -2.464,-0.344 c -0.79,-0.229 -1.445,-0.546 -1.968,-0.952 l 0.8,-1.776 c 1.088,0.758 2.31,1.136 3.664,1.136 0.704,0 1.245,-0.114 1.624,-0.344 0.379,-0.229 0.568,-0.546 0.568,-0.952 0,-0.362 -0.173,-0.645 -0.52,-0.848 -0.347,-0.202 -0.963,-0.4 -1.848,-0.592 -0.992,-0.202 -1.784,-0.448 -2.376,-0.736 -0.592,-0.288 -1.024,-0.642 -1.296,-1.064 -0.272,-0.42 -0.408,-0.94 -0.408,-1.56 0,-0.682 0.19,-1.29 0.568,-1.824 0.379,-0.533 0.91,-0.952 1.592,-1.256 0.683,-0.304 1.472,-0.456 2.368,-0.456 0.8,0 1.57,0.118 2.312,0.352 0.741,0.235 1.33,0.55 1.768,0.944 l -0.8,1.776 C 29.189,6.578 28.101,6.2 26.96,6.2 c -0.65,0 -1.163,0.126 -1.536,0.376 -0.373,0.251 -0.56,0.595 -0.56,1.032 0,0.256 0.072,0.467 0.216,0.632 0.144,0.166 0.384,0.312 0.72,0.44 0.336,0.128 0.813,0.262 1.432,0.4 1.45,0.32 2.493,0.731 3.128,1.232 0.635,0.502 0.952,1.195 0.952,2.08 0,1.067 -0.41,1.907 -1.232,2.52 -0.821,0.614 -1.968,0.92 -3.44,0.92 z m 10.464,-1.792 c 0.245,0 0.502,-0.016 0.768,-0.048 l -0.128,1.76 a 6.78,6.78 0 0 1 -0.928,0.064 c -1.195,0 -2.067,-0.261 -2.616,-0.784 -0.55,-0.522 -0.824,-1.317 -0.824,-2.384 V 9.64 H 31.888 V 7.831 h 1.488 V 5.527 h 2.416 V 7.831 H 37.76 V 9.64 h -1.968 v 2.992 c 0,0.939 0.438,1.408 1.312,1.408 z m 5.616,1.776 c -0.832,0 -1.563,-0.168 -2.192,-0.504 a 3.534,3.534 0 0 1 -1.456,-1.424 c -0.341,-0.613 -0.512,-1.336 -0.512,-2.168 0,-0.832 0.17,-1.554 0.512,-2.168 a 3.484,3.484 0 0 1 1.456,-1.416 c 0.63,-0.33 1.36,-0.496 2.192,-0.496 0.832,0 1.563,0.166 2.192,0.496 0.63,0.331 1.115,0.803 1.456,1.416 0.341,0.614 0.512,1.336 0.512,2.168 0,0.832 -0.17,1.555 -0.512,2.168 a 3.534,3.534 0 0 1 -1.456,1.424 c -0.63,0.336 -1.36,0.504 -2.192,0.504 z m 0,-1.84 c 1.173,0 1.76,-0.752 1.76,-2.256 0,-0.757 -0.152,-1.322 -0.456,-1.696 -0.304,-0.373 -0.739,-0.56 -1.304,-0.56 -1.173,0 -1.76,0.752 -1.76,2.256 0,1.504 0.587,2.256 1.76,2.256 z m 10.848,-4.351 -1.36,0.144 c -0.672,0.064 -1.146,0.253 -1.424,0.567 -0.277,0.315 -0.416,0.734 -0.416,1.256 v 4.097 H 47.952 V 7.832 h 2.32 V 9.16 c 0.395,-0.907 1.21,-1.403 2.448,-1.488 l 0.704,-0.048 z m 7.02,-1.777 h 2.368 l -4.736,10.72 h -2.448 l 1.504,-3.312 -3.232,-7.408 h 2.512 l 1.984,4.992 z m 7.968,-0.208 c 0.683,0 1.285,0.166 1.808,0.496 0.523,0.331 0.93,0.803 1.224,1.416 0.293,0.614 0.44,1.326 0.44,2.136 0,0.811 -0.147,1.529 -0.44,2.152 -0.293,0.624 -0.704,1.11 -1.232,1.457 a 3.207,3.207 0 0 1 -1.8,0.52 3.121,3.121 0 0 1 -1.472,-0.345 2.45,2.45 0 0 1 -1.008,-0.951 v 1.168 H 63.692 V 4.408 h 2.416 v 4.48 a 2.388,2.388 0 0 1 1,-0.92 3.16,3.16 0 0 1 1.448,-0.329 z m -0.704,6.337 c 0.566,0 1.003,-0.2 1.312,-0.6 0.31,-0.4 0.464,-0.963 0.464,-1.688 0,-0.715 -0.154,-1.262 -0.464,-1.64 -0.31,-0.38 -0.746,-0.569 -1.312,-0.569 -0.565,0 -1.002,0.195 -1.312,0.585 -0.31,0.389 -0.464,0.94 -0.464,1.655 0,0.726 0.155,1.283 0.464,1.673 0.31,0.389 0.747,0.584 1.312,0.584 z m 9.424,1.84 c -0.832,0 -1.563,-0.169 -2.192,-0.505 a 3.535,3.535 0 0 1 -1.456,-1.424 c -0.341,-0.613 -0.512,-1.336 -0.512,-2.168 0,-0.832 0.17,-1.554 0.512,-2.168 a 3.484,3.484 0 0 1 1.456,-1.416 c 0.63,-0.33 1.36,-0.496 2.192,-0.496 0.832,0 1.563,0.166 2.192,0.496 0.63,0.331 1.115,0.803 1.456,1.416 0.341,0.614 0.512,1.336 0.512,2.168 0,0.832 -0.17,1.555 -0.512,2.168 a 3.535,3.535 0 0 1 -1.456,1.424 c -0.63,0.336 -1.36,0.504 -2.192,0.504 z m 0,-1.84 c 1.174,0 1.76,-0.753 1.76,-2.257 0,-0.757 -0.152,-1.322 -0.456,-1.696 -0.304,-0.373 -0.739,-0.56 -1.304,-0.56 -1.173,0 -1.76,0.752 -1.76,2.256 0,1.504 0.587,2.256 1.76,2.256 z m 9.008,1.84 c -0.832,0 -1.563,-0.169 -2.192,-0.505 a 3.534,3.534 0 0 1 -1.456,-1.424 c -0.341,-0.613 -0.512,-1.336 -0.512,-2.168 0,-0.832 0.17,-1.554 0.512,-2.168 a 3.484,3.484 0 0 1 1.456,-1.416 c 0.63,-0.33 1.36,-0.496 2.192,-0.496 0.832,0 1.563,0.166 2.192,0.496 0.63,0.331 1.115,0.803 1.456,1.416 0.341,0.614 0.512,1.336 0.512,2.168 0,0.832 -0.17,1.555 -0.512,2.168 a 3.534,3.534 0 0 1 -1.456,1.424 c -0.63,0.336 -1.36,0.504 -2.192,0.504 z m 0,-1.84 c 1.173,0 1.76,-0.753 1.76,-2.257 0,-0.757 -0.152,-1.322 -0.456,-1.696 -0.304,-0.373 -0.739,-0.56 -1.304,-0.56 -1.173,0 -1.76,0.752 -1.76,2.256 0,1.504 0.587,2.256 1.76,2.256 z M 100,15.686 h -2.96 l -3.008,-3.503 v 3.504 H 91.616 V 4.408 h 2.416 v 6.783 l 2.896,-3.344 h 2.88 l -3.296,3.744 3.488,4.098 z"
     class="ui-fill-[#333333] dark:ui-fill-white ui-fill-white"
     clip-rule="evenodd"
     id="path1"
     style="fill:#34343f;fill-opacity:1" /><path
     fill="#ff4785"
     d="M 0.62,18.43 0,1.92 A 1.006,1.006 0 0 1 0.944,0.88 l 14.04,-0.878 a 1.005,1.005 0 0 1 1.069,1.004 v 17.989 a 1.006,1.006 0 0 1 -1.051,1.004 L 1.58,19.396 A 1.006,1.006 0 0 1 0.62,18.429 Z"
     id="path2" /><path
     fill="#ffffff"
     fill-rule="evenodd"
     d="m 13.88,0.071 -1.932,0.12 -0.094,2.267 a 0.15,0.15 0 0 0 0.24,0.126 l 0.88,-0.668 0.744,0.586 a 0.15,0.15 0 0 0 0.243,-0.123 l -0.08,-2.308 z m -1.504,7.59 C 12.023,7.936 9.387,8.123 9.387,7.732 9.443,6.239 8.775,6.174 8.403,6.174 8.051,6.174 7.457,6.28 7.457,7.08 c 0,0.815 0.868,1.275 1.887,1.815 1.447,0.767 3.2,1.696 3.2,4.032 0,2.24 -1.82,3.476 -4.14,3.476 -2.395,0 -4.488,-0.969 -4.252,-4.328 0.093,-0.394 3.138,-0.3 3.138,0 -0.038,1.386 0.278,1.794 1.076,1.794 0.613,0 0.891,-0.338 0.891,-0.906 0,-0.861 -0.904,-1.369 -1.945,-1.953 C 5.903,10.219 4.245,9.288 4.245,7.151 c 0,-2.132 1.466,-3.554 4.084,-3.554 2.618,0 4.047,1.4 4.047,4.064 z"
     clip-rule="evenodd"
     id="path3" /></svg>
